<?xml version="1.0" encoding="UTF-8"?>
<svg width="15rem" viewBox="0 0 296 55" version="1.1" xmlns="http://www.w3.org/2000/svg" xmlns:xlink="http://www.w3.org/1999/xlink">
    <!-- Generator: Sketch 58 (84663) - https://sketch.com -->
    <title>Logo</title>
    <desc>Created with Sketch.</desc>
    <g id="Symbols" stroke="none" stroke-width="1" fill="none" fill-rule="evenodd">
        <g id="XL/Logo" transform="translate(0.000000, -1.000000)" fill-rule="nonzero">
            <g id="Logo" transform="translate(0.000000, 1.000000)">
                <g id="icon" fill="#008DE9">
                    <path d="M26.3541667,0 C28.2513746,0 29.7916667,1.5402921 29.7916667,3.4375 L29.7916667,51.5625 C29.7916667,53.4597079 28.2513746,55 26.3541667,55 C24.4569588,55 22.9166667,53.4597079 22.9166667,51.5625 L22.9166667,3.4375 C22.9166667,1.5402921 24.4569588,0 26.3541667,0 L26.3541667,0 Z" id="path-1"></path>
                    <path d="M3.4375,18.3333333 C5.3347079,18.3333333 6.875,19.8736254 6.875,21.7708333 L6.875,33.2291667 C6.875,35.1263746 5.3347079,36.6666667 3.4375,36.6666667 C1.5402921,36.6666667 0,35.1263746 0,33.2291667 L0,21.7708333 C0,19.8736254 1.5402921,18.3333333 3.4375,18.3333333 L3.4375,18.3333333 Z" id="path-2"></path>
                    <path d="M37.8125,6.875 C39.7097079,6.875 41.25,8.4152921 41.25,10.3125 L41.25,44.6875 C41.25,46.5847079 39.7097079,48.125 37.8125,48.125 C35.9152921,48.125 34.375,46.5847079 34.375,44.6875 L34.375,10.3125 C34.375,8.4152921 35.9152921,6.875 37.8125,6.875 L37.8125,6.875 Z" id="path-3"></path>
                    <path d="M49.2708333,20.625 C51.1680412,20.625 52.7083333,22.1652921 52.7083333,24.0625 L52.7083333,30.9375 C52.7083333,32.8347079 51.1680412,34.375 49.2708333,34.375 C47.3736254,34.375 45.8333333,32.8347079 45.8333333,30.9375 L45.8333333,24.0625 C45.8333333,22.1652921 47.3736254,20.625 49.2708333,20.625 L49.2708333,20.625 Z" id="path-4"></path>
                    <path d="M14.8958333,12.6041667 C16.7930412,12.6041667 18.3333333,14.1444588 18.3333333,16.0416667 L18.3333333,38.9583333 C18.3333333,40.8555412 16.7930412,42.3958333 14.8958333,42.3958333 C12.9986254,42.3958333 11.4583333,40.8555412 11.4583333,38.9583333 L11.4583333,16.0416667 C11.4583333,14.1444588 12.9986254,12.6041667 14.8958333,12.6041667 L14.8958333,12.6041667 Z" id="path-5"></path>
                </g>
                <path d="M93.8,29.2 C96.400013,33.333354 98.9833205,37.06665 101.55,40.4 L101.45,41.15 C99.2833225,41.9166705 97.066678,42.366666 94.8,42.5 L94.1,41.95 C91.699988,37.816646 89.7500075,34.216682 88.25,31.15 L83.4,31.15 L83.4,31.8 L83.7,42 L76.9,42 L77.25,32.4 L76.9,9.8 L89.25,9.75 C92.6166835,9.75 95.2166575,10.5749917 97.05,12.225 C98.8833425,13.8750083 99.8,16.233318 99.8,19.3 C99.8,21.366677 99.2750052,23.2583247 98.225,24.975 C97.1749947,26.6916752 95.7000095,28.0999945 93.8,29.2 Z M83.5,25.9 L88.45,26.1 C91.2833475,25.1333285 92.7,23.083349 92.7,19.95 C92.7,18.25 92.2416712,16.9750042 91.325,16.125 C90.4083287,15.2749957 89,14.816667 87.1,14.75 L83.7,14.95 L83.5,25.9 Z M114.7,18.3 C117.266679,18.3 119.274993,18.8749943 120.725,20.025 C122.175007,21.1750057 122.9,22.783323 122.9,24.85 C122.9,25.450003 122.800001,27.349984 122.6,30.55 C122.566666,31.483338 122.516667,32.4416617 122.45,33.425 C122.383333,34.4083382 122.35,35.2499965 122.35,35.95 C122.35,36.5166695 122.433333,36.9083323 122.6,37.125 C122.766667,37.3416677 123.066665,37.45 123.5,37.45 C123.833335,37.45 124.266664,37.383334 124.8,37.25 L125.3,37.65 L124.7,41.15 C123.633328,41.8500035 122.416674,42.266666 121.05,42.4 C120.049995,42.3 119.21667,41.9416698 118.55,41.325 C117.88333,40.7083303 117.433335,39.8500055 117.2,38.75 L116.85,38.75 C115.183325,40.5166755 113.466676,41.7499965 111.7,42.45 C109.299988,42.4166665 107.416674,41.7833395 106.05,40.55 C104.683326,39.3166605 104,37.633344 104,35.5 C104,33.833325 104.424996,32.5250048 105.275,31.575 C106.125004,30.6249952 107.416658,29.983335 109.15,29.65 L116.8,28.2 L116.8,26.15 C116.8,23.9833225 115.733344,22.9 113.6,22.9 C112.566661,22.9 111.475006,23.133331 110.325,23.6 C109.174994,24.066669 107.883341,24.8 106.45,25.8 L105.95,25.5 L105.2,21.1 C106.633341,20.1999955 108.166658,19.5083358 109.8,19.025 C111.433341,18.5416642 113.066659,18.3 114.7,18.3 Z M111.45,32.7 C110.916664,32.833334 110.525001,33.0583318 110.275,33.375 C110.024999,33.6916682 109.9,34.1666635 109.9,34.8 C109.9,35.666671 110.133331,36.3416643 110.6,36.825 C111.066669,37.3083357 111.716662,37.55 112.55,37.55 C113.850007,37.55 115.216659,36.783341 116.65,35.25 L116.75,31.55 L111.45,32.7 Z M119.05,5.85 L121.45,9.45 L121.35,10.1 C120.616663,10.566669 120.066669,10.899999 119.7,11.1 C115.533313,13.6666795 112.833339,15.3 111.6,16 L110.95,15.95 L109.35,13.45 C113.216686,10.3499845 116.233322,7.80001 118.4,5.8 L119.05,5.85 Z M149,31.75 L149.15,35.95 C149.15,36.5166695 149.224999,36.9083323 149.375,37.125 C149.525001,37.3416677 149.799998,37.45 150.2,37.45 C150.566668,37.45 151.016664,37.383334 151.55,37.25 L152,37.65 L151.45,41.15 C150.316661,41.8500035 149.08334,42.266666 147.75,42.4 C146.716661,42.2999995 145.850004,41.950003 145.15,41.35 C144.449996,40.749997 143.966668,39.9333385 143.7,38.9 L143.3,38.9 C141.666658,40.4 140,41.549996 138.3,42.35 C135.033317,42.35 132.5,41.3083437 130.7,39.225 C128.899991,37.1416562 128,34.2500185 128,30.55 C128,26.616647 129.033323,23.6000105 131.1,21.5 C133.166677,19.3999895 136.033315,18.35 139.7,18.35 C140.666672,18.35 141.733328,18.449999 142.9,18.65 L142.8,7.4 L149.4,6.9 L149,31.75 Z M139.25,22.85 C135.91665,22.85 134.25,24.9666455 134.25,29.2 C134.25,31.8333465 134.649996,33.81666 135.45,35.15 C136.25,36.48334 137.416659,37.15 138.95,37.15 C140.416674,37.15 141.766661,36.4666735 143,35.1 L143.1,32.35 L142.95,23.75 C141.649993,23.149997 140.416673,22.85 139.25,22.85 Z M156.35,32.4 L156.1,19.2 L162.65,18.65 L162.35,31.75 L162.65,42 L156,42 L156.35,32.4 Z M159.5,7.35 C160.533339,7.35 161.341664,7.649997 161.925,8.25 C162.508336,8.85 162.8,9.683328 162.8,10.75 C162.8,11.883339 162.483337,12.78333 161.85,13.45 C161.216663,14.11667 160.35,14.45 159.25,14.45 C158.149994,14.45 157.308336,14.150003 156.725,13.55 C156.141664,12.949997 155.85,12.1000055 155.85,11 C155.85,9.8999945 156.174997,9.01667 156.825,8.35 C157.475003,7.68333 158.366661,7.35 159.5,7.35 Z M178.6,18.3 C182.000017,18.3 184.599991,19.29999 186.4,21.3 C188.200009,23.30001 189.1,26.1833145 189.1,29.95 C189.1,34.016687 188.133343,37.1249892 186.2,39.275 C184.266657,41.4250107 181.483351,42.5 177.85,42.5 C174.449983,42.5 171.85,41.50001 170.05,39.5 C168.249991,37.49999 167.35,34.6166855 167.35,30.85 C167.35,26.783313 168.316657,23.6750107 170.25,21.525 C172.183343,19.3749892 174.966648,18.3 178.6,18.3 Z M178.15,22.8 C176.549992,22.8 175.39167,23.333328 174.675,24.4 C173.95833,25.466672 173.6,27.1833215 173.6,29.55 C173.6,32.616682 173.966663,34.8 174.7,36.1 C175.433337,37.4000065 176.633325,38.05 178.3,38.05 C179.900008,38.05 181.05833,37.5250052 181.775,36.475 C182.49167,35.4249947 182.85,33.700012 182.85,31.3 C182.85,28.2666515 182.475004,26.0916732 181.725,24.775 C180.974996,23.4583267 179.783342,22.8 178.15,22.8 Z M226.8,26.15 L226.75,30.4 C226.783333,34.2333525 225.666678,37.1999895 223.4,39.3 C221.133322,41.4000105 217.883354,42.45 213.65,42.45 C209.583313,42.45 206.483344,41.4333435 204.35,39.4 C202.216656,37.3666565 201.2,34.450019 201.3,30.65 L201.35,26 L201.2,9.8 L208,9.8 L207.65,29.75 C207.616666,32.1833455 208.133328,33.9833275 209.2,35.15 C210.266672,36.3166725 211.883322,36.9 214.05,36.9 C218.383355,36.9 220.533333,34.633356 220.5,30.1 L220.15,9.8 L227.05,9.8 L226.8,26.15 Z M240.75,15.2 L240.6,23.9 L245.1,23.95 L250.55,23.8 L251,24.3 L250.5,29.35 L244.55,29.2 L240.5,29.25 L240.45,31.8 L240.75,42 L233.95,42 L234.3,32.4 L233.95,9.8 L253.1,9.8 L253.5,10.35 L253,15.45 L245.35,15.15 L240.75,15.2 Z M273.65,29.2 C276.250013,33.333354 278.833321,37.06665 281.4,40.4 L281.3,41.15 C279.133323,41.9166705 276.916678,42.366666 274.65,42.5 L273.95,41.95 C271.549988,37.816646 269.600008,34.216682 268.1,31.15 L263.25,31.15 L263.25,31.8 L263.55,42 L256.75,42 L257.1,32.4 L256.75,9.8 L269.1,9.75 C272.466683,9.75 275.066658,10.5749917 276.9,12.225 C278.733342,13.8750083 279.65,16.233318 279.65,19.3 C279.65,21.366677 279.125005,23.2583247 278.075,24.975 C277.024995,26.6916752 275.550009,28.0999945 273.65,29.2 Z M263.35,25.9 L268.3,26.1 C271.133348,25.1333285 272.55,23.083349 272.55,19.95 C272.55,18.25 272.091671,16.9750042 271.175,16.125 C270.258329,15.2749957 268.85,14.816667 266.95,14.75 L263.55,14.95 L263.35,25.9 Z M294.9,31.4 L295,35.95 C295,37.8500095 294.683336,39.46666 294.05,40.8 C293.416664,42.13334 292.391674,43.3166615 290.975,44.35 C289.558326,45.3833385 287.616679,46.366662 285.15,47.3 L283.1,43.7 L283.1,43.1 C285.166677,42.033328 286.624996,40.9750053 287.475,39.925 C288.325004,38.8749947 288.75,37.516675 288.75,35.85 L288.75,32.05 L288.45,14.8 L283.15,14.95 L282.65,14.45 L283,9.8 L295.25,9.8 L294.9,31.4 Z" id="RádioUFRJ" fill="#2F2F2F"></path>
            </g>
        </g>
    </g>
</svg>